# xmcd CD database file
#
# Track frame offsets:
#	150
#	12413
#	24160
#	36569
#	48399
#	59473
#	73623
#	88954
#	101442
#	117841
#	130356
#	141886
#	158576
#	169739
#	183906
#	198940
#	212033
#	220965
#	231999
#	239970
#	248577
#	262702
#	270741
#	284545
#	299940
#	311852
#	322030
#
# Disc length: 4419 seconds
#
# Revision: 0
# Processed by: cddbd v1.5.2PL0 Copyright (c) Steve Scherf et al.
# Submitted via: CDex 1.73
#
DISCID=a811411b
DTITLE=Real Jazz - Jazz Piano Essentials
DYEAR=1900
DGENRE=Jazz
TTITLE0=Early Morning
TTITLE1=Gymnopedie
TTITLE2=Jazz Lullaby
TTITLE3=Here's What
TTITLE4=Impressions of Central Park
TTITLE5=It's a Wonderful Life
TTITLE6=Jazz Bossa
TTITLE7=Jazz for a Rainy Day
TTITLE8=Jazz in the Night
TTITLE9=Jazz Meditation
TTITLE10=Jazz Odyssey
TTITLE11=Brazilian Jazz Fantasy
TTITLE12=Jazz On a Summers Day
TTITLE13=Jazz St Louis
TTITLE14=Latin Jazz Improv
TTITLE15=Love Story
TTITLE16=Piano Meditation (Awakening)
TTITLE17=Piano Meditation (Inner Peace)
TTITLE18=Piano Meditation (Peace Song)
TTITLE19=Solo Piano Blues Improv
TTITLE20=Jazz For a Rainy Day Part 2
TTITLE21=Supreme Love
TTITLE22=Take Six
TTITLE23=The Arch
TTITLE24=The New Jazz
TTITLE25=Tone Poem
TTITLE26=Blues Piano Improv No 2
EXTD=
EXTT0=
EXTT1=
EXTT2=
EXTT3=
EXTT4=
EXTT5=
EXTT6=
EXTT7=
EXTT8=
EXTT9=
EXTT10=
EXTT11=
EXTT12=
EXTT13=
EXTT14=
EXTT15=
EXTT16=
EXTT17=
EXTT18=
EXTT19=
EXTT20=
EXTT21=
EXTT22=
EXTT23=
EXTT24=
EXTT25=
EXTT26=
PLAYORDER=
